# xmcd CD database file
#
# Track frame offsets:
#	150
#	21887
#	61929
#	73014
#	101630
#	144001
#	200724
#	235931
#
# Disc length: 3299 seconds
#
# Revision: 0
# Processed by: cddbd v1.5.1PL0 Copyright (c) Steve Scherf et al.
# Submitted via: CDex 1.51
#
DISCID=6c0ce108
DTITLE=Happy Apple - The Peace Between Our Companies
DYEAR=2005
DGENRE=Jazz
TTITLE0=Starchild Cranium
TTITLE1=Frelance Robotics
TTITLE2=Paulie's Quick Temper Has Gotten Him Into a Few Jams
TTITLE3=Let's Not Reflect
TTITLE4=Dojo Fantastique
TTITLE5=See Sun Spot Run
TTITLE6=Ella By Nightlight
TTITLE7=Go (Base 13)
EXTD=YEAR: 2005
EXTT0=
EXTT1=
EXTT2=
EXTT3=
EXTT4=
EXTT5=
EXTT6=
EXTT7=
PLAYORDER=
